<svg xmlns="http://www.w3.org/2000/svg" width="34" height="34" viewBox="0 0 34 34" fill="none">
  <path d="M27.6206 11.3178L16.9999 21.6708L6.37914 11.3178C6.18939 11.1324 5.93465 11.0286 5.66939 11.0286C5.40412 11.0286 5.14939 11.1324 4.95964 11.3178C4.86776 11.4078 4.79476 11.5152 4.74493 11.6338C4.6951 11.7524 4.66943 11.8797 4.66943 12.0084C4.66943 12.137 4.6951 12.2643 4.74493 12.3829C4.79476 12.5015 4.86776 12.609 4.95964 12.699L16.2583 23.715C16.4567 23.9084 16.7228 24.0166 16.9999 24.0166C17.277 24.0166 17.5431 23.9084 17.7415 23.715L29.0401 12.7011C29.1327 12.611 29.2062 12.5033 29.2564 12.3843C29.3066 12.2654 29.3325 12.1375 29.3325 12.0084C29.3325 11.8792 29.3066 11.7514 29.2564 11.6324C29.2062 11.5134 29.1327 11.4057 29.0401 11.3156C28.8504 11.1303 28.5957 11.0265 28.3304 11.0265C28.0651 11.0265 27.8104 11.1303 27.6206 11.3156V11.3178Z" fill="#E6E6E6"/>
</svg>