<svg xmlns="http://www.w3.org/2000/svg" width="36" height="36" viewBox="0 0 36 36" fill="none">
  <path d="M13.2708 26.5417C9.56181 26.5417 6.42308 25.2568 3.85467 22.687C1.28625 20.1172 0.00136219 16.9785 1.08025e-06 13.2708C-0.00136003 9.56317 1.28353 6.42444 3.85467 3.85467C6.42581 1.28489 9.56453 0 13.2708 0C16.9771 0 20.1165 1.28489 22.689 3.85467C25.2615 6.42444 26.5458 9.56317 26.5417 13.2708C26.5417 14.7681 26.3035 16.1802 25.8271 17.5073C25.3507 18.8344 24.7042 20.0083 23.8875 21.0292L35.3208 32.4625C35.6951 32.8368 35.8823 33.3132 35.8823 33.8917C35.8823 34.4701 35.6951 34.9465 35.3208 35.3208C34.9465 35.6951 34.4701 35.8823 33.8917 35.8823C33.3132 35.8823 32.8368 35.6951 32.4625 35.3208L21.0292 23.8875C20.0083 24.7042 18.8344 25.3507 17.5073 25.8271C16.1802 26.3035 14.7681 26.5417 13.2708 26.5417ZM13.2708 22.4583C15.8229 22.4583 17.9925 21.5654 19.7797 19.7797C21.5668 17.9939 22.4597 15.8243 22.4583 13.2708C22.457 10.7174 21.5641 8.54846 19.7797 6.76404C17.9953 4.97963 15.8256 4.08606 13.2708 4.08333C10.716 4.08061 8.5471 4.97418 6.76404 6.76404C4.98099 8.5539 4.08742 10.7228 4.08333 13.2708C4.07925 15.8188 4.97282 17.9884 6.76404 19.7797C8.55527 21.5709 10.7242 22.4638 13.2708 22.4583Z" fill="#E6E6E6"/>
</svg>